<?xml version="1.0" standalone="no"?>
<!DOCTYPE svg PUBLIC "-//W3C//DTD SVG 20010904//EN"
 "http://www.w3.org/TR/2001/REC-SVG-20010904/DTD/svg10.dtd">
<svg version="1.0" xmlns="http://www.w3.org/2000/svg"
 width="200.000000pt" height="200.000000pt" viewBox="0 0 200.000000 200.000000"
 preserveAspectRatio="xMidYMid meet">

<g transform="translate(0.000000,200.000000) scale(0.100000,-0.100000)"
fill="#FFFFFF" stroke="none">
<path d="M881 1448 c-8 -22 -17 -28 -41 -28 -35 0 -38 -10 -9 -28 16 -10 19
-19 14 -43 -7 -32 0 -37 25 -14 15 14 20 13 43 -5 34 -27 37 -25 24 11 -11 27
-10 32 13 49 l25 20 -28 0 c-22 0 -31 7 -42 33 l-13 32 -11 -27z"/>
<path d="M1100 1443 c-10 -27 -17 -33 -42 -33 l-31 0 26 -20 c22 -18 25 -25
17 -46 -14 -37 -13 -38 17 -16 27 20 28 20 55 0 31 -22 32 -21 18 18 -10 24
-8 30 17 50 l28 23 -37 1 c-30 0 -38 4 -46 28 l-10 27 -12 -32z"/>
<path d="M671 1356 c-8 -21 -16 -27 -31 -23 -24 6 -26 -5 -5 -23 10 -8 13 -21
9 -37 -6 -23 -5 -24 15 -11 17 11 25 11 42 0 20 -13 21 -12 15 12 -5 19 -1 28
15 40 21 14 21 14 -7 18 -20 2 -30 10 -35 28 l-6 25 -12 -29z"/>
<path d="M1312 1356 c-7 -17 -20 -26 -34 -26 -22 -1 -22 -1 -4 -15 13 -10 17
-22 14 -40 -5 -24 -4 -25 16 -12 18 12 24 12 44 -1 21 -14 22 -14 16 17 -5 23
-2 32 10 37 25 9 19 22 -8 17 -19 -4 -26 1 -33 22 l-9 27 -12 -26z"/>
<path d="M496 1202 c-4 -12 -14 -22 -23 -22 -12 0 -13 -3 -4 -14 6 -7 8 -22 4
-32 -6 -17 -5 -17 11 -5 13 11 20 11 28 3 17 -17 28 -15 22 3 -4 8 -1 22 6 30
10 12 9 15 -4 15 -9 0 -20 10 -25 22 l-8 23 -7 -23z"/>
<path d="M1494 1203 c-4 -15 -14 -23 -28 -23 -19 -1 -20 -1 -3 -11 13 -7 16
-17 11 -32 -6 -20 -5 -20 10 -8 13 11 20 11 28 3 19 -19 26 -14 20 13 -2 15 0
25 7 25 6 0 11 4 11 10 0 5 -7 7 -15 4 -9 -4 -18 2 -24 17 l-10 24 -7 -22z"/>
<path d="M962 1184 c-73 -51 -23 -163 64 -146 13 2 33 16 44 30 58 73 -32 169
-108 116z"/>
<path d="M657 1067 c-9 -15 -17 -29 -17 -32 0 -3 20 -5 45 -5 24 0 68 -9 98
-20 106 -40 171 -122 206 -262 l18 -73 6 54 c8 68 54 166 98 210 45 44 131 84
197 89 28 3 52 6 52 8 0 2 -5 15 -12 30 -12 25 -15 26 -65 21 -70 -7 -149 -45
-195 -92 -41 -42 -78 -111 -79 -147 0 -22 -1 -22 -11 2 -40 97 -57 125 -91
157 -50 45 -108 71 -178 79 -52 6 -56 5 -72 -19z"/>
<path d="M617 987 c-8 -13 -40 -73 -70 -134 l-56 -111 87 0 c102 0 174 -22
249 -73 57 -39 126 -107 143 -140 8 -14 -6 -5 -33 23 -98 101 -206 142 -379
142 -65 1 -118 3 -118 5 0 2 34 70 76 150 42 80 73 143 70 140 -12 -11 -256
-372 -254 -374 2 -1 48 4 103 12 114 16 246 10 327 -13 67 -20 160 -69 189
-100 20 -21 15 -20 -45 10 -170 86 -412 93 -554 16 l-37 -20 40 7 c22 5 105 8
185 7 146 -1 248 -15 395 -54 69 -18 71 -18 140 1 131 36 247 52 390 53 77 1
157 -3 178 -7 68 -14 32 11 -56 39 -95 30 -231 36 -332 15 -46 -10 -165 -59
-215 -88 -3 -2 -6 6 -7 17 -2 27 81 116 152 162 76 50 149 71 247 70 43 0 78
2 78 4 0 2 -29 63 -65 134 -62 123 -67 130 -95 130 -17 0 -30 -2 -30 -5 0 -3
23 -50 50 -105 l50 -100 -34 0 c-54 0 -157 -37 -208 -75 -61 -45 -118 -117
-149 -188 -24 -56 -39 -72 -39 -41 0 9 -14 42 -31 74 -64 120 -194 215 -312
227 -31 3 -57 8 -57 10 0 2 20 44 45 93 25 49 45 94 45 100 0 20 -48 10 -63
-13z"/>
<path d="M1494 840 l76 -146 -93 4 c-157 7 -291 -37 -390 -128 -28 -26 -50
-50 -47 -53 3 -3 32 12 64 34 94 63 177 84 331 82 72 0 152 -6 180 -11 27 -6
52 -9 54 -6 2 2 -8 21 -22 41 -132 194 -211 310 -219 318 -5 6 24 -55 66 -135z"/>
</g>
</svg>
